<?xml version="1.0" encoding="iso-8859-1"?>
<!-- Generator: Adobe Illustrator 19.0.0, SVG Export Plug-In . SVG Version: 6.00 Build 0)  -->
<svg version="1.1" id="Layer_1" xmlns="http://www.w3.org/2000/svg" xmlns:xlink="http://www.w3.org/1999/xlink" x="0px" y="0px"
	 viewBox="0 0 512 512" style="enable-background:new 0 0 512 512;" xml:space="preserve">
<g>
	<g>
		<path d="M431.978,239.287C423.534,149.626,347.833,79.238,256,79.238S88.466,149.626,80.022,239.287
			C34.57,247.558,0,287.437,0,335.238c0,53.775,43.749,97.524,97.524,97.524h316.952c53.775,0,97.524-43.749,97.524-97.524
			C512,287.437,477.43,247.558,431.978,239.287z M414.476,396.19H97.524c-33.609,0-60.952-27.343-60.952-60.952
			c0-33.609,27.343-60.952,60.952-60.952h18.286V256c0-77.301,62.889-140.19,140.19-140.19S396.19,178.699,396.19,256v18.286h18.286
			c33.609,0,60.952,27.343,60.952,60.952C475.429,368.847,448.085,396.19,414.476,396.19z"/>
	</g>
</g>
<g>
</g>
<g>
</g>
<g>
</g>
<g>
</g>
<g>
</g>
<g>
</g>
<g>
</g>
<g>
</g>
<g>
</g>
<g>
</g>
<g>
</g>
<g>
</g>
<g>
</g>
<g>
</g>
<g>
</g>
</svg>
